<svg width="20" height="20" viewBox="0 0 20 20" fill="none" xmlns="http://www.w3.org/2000/svg">
<path d="M0 4C0 1.79086 1.79086 0 4 0H16C18.2091 0 20 1.79086 20 4V16C20 18.2091 18.2091 20 16 20H4C1.79086 20 0 18.2091 0 16V4Z" fill="#8A9BFF"/>
<rect x="2" y="2" width="16" height="16" rx="4" fill="#859AFB"/>
<path d="M11.8948 13.1112C11.7831 13.1112 11.676 13.0644 11.597 12.981C11.5181 12.8977 11.4737 12.7846 11.4737 12.6667C11.4737 12.5489 11.5181 12.4358 11.597 12.3525C11.676 12.2691 11.7831 12.2223 11.8948 12.2223C12.0065 12.2223 12.1136 12.1755 12.1925 12.0921C12.2715 12.0088 12.3159 11.8957 12.3159 11.7778C12.3159 11.1854 13.158 11.1854 13.158 11.7778C13.158 11.8957 13.2023 12.0088 13.2813 12.0921C13.3603 12.1755 13.4674 12.2223 13.579 12.2223C14.1403 12.2223 14.1403 13.1112 13.579 13.1112C13.4674 13.1112 13.3603 13.158 13.2813 13.2414C13.2023 13.3247 13.158 13.4378 13.158 13.5557C13.158 14.1481 12.3159 14.1481 12.3159 13.5557C12.3159 13.4378 12.2715 13.3247 12.1925 13.2414C12.1136 13.158 12.0065 13.1112 11.8948 13.1112ZM6.42096 9.55554C6.97932 9.55554 7.51482 9.32141 7.90964 8.90465C8.30447 8.48789 8.52628 7.92265 8.52628 7.33326C8.52628 6.7408 9.3684 6.7408 9.3684 7.33326C9.3684 7.92265 9.59021 8.48789 9.98504 8.90465C10.3799 9.32141 10.9154 9.55554 11.4737 9.55554C12.035 9.55554 12.035 10.4445 11.4737 10.4445C10.9154 10.4445 10.3799 10.6786 9.98504 11.0953C9.59021 11.5121 9.3684 12.0774 9.3684 12.6667C9.3684 12.7846 9.32404 12.8977 9.24508 12.981C9.16611 13.0644 9.05901 13.1112 8.94734 13.1112C8.83567 13.1112 8.72857 13.0644 8.6496 12.981C8.57064 12.8977 8.52628 12.7846 8.52628 12.6667C8.52628 12.0774 8.30447 11.5121 7.90964 11.0953C7.51482 10.6786 6.97932 10.4445 6.42096 10.4445C5.85968 10.4445 5.85968 9.55554 6.42096 9.55554ZM11.8948 7.77772C11.7831 7.77772 11.676 7.73089 11.597 7.64754C11.5181 7.56419 11.4737 7.45114 11.4737 7.33326C11.4737 7.21538 11.5181 7.10233 11.597 7.01898C11.676 6.93563 11.7831 6.8888 11.8948 6.8888C12.0065 6.8888 12.1136 6.84198 12.1925 6.75862C12.2715 6.67527 12.3159 6.56222 12.3159 6.44435C12.3159 5.85188 13.158 5.85188 13.158 6.44435C13.158 6.56222 13.2023 6.67527 13.2813 6.75862C13.3603 6.84198 13.4674 6.8888 13.579 6.8888C14.1403 6.8888 14.1403 7.77772 13.579 7.77772C13.4674 7.77772 13.3603 7.82454 13.2813 7.90789C13.2023 7.99125 13.158 8.1043 13.158 8.22217C13.158 8.81463 12.3159 8.81463 12.3159 8.22217C12.3159 8.1043 12.2715 7.99125 12.1925 7.90789C12.1136 7.82454 12.0065 7.77772 11.8948 7.77772Z" fill="white"/>
</svg>
